<mxfile host="Electron" agent="Mozilla/5.0 (Windows NT 10.0; Win64; x64) AppleWebKit/537.36 (KHTML, like Gecko) draw.io/28.0.6 Chrome/138.0.7204.100 Electron/37.2.3 Safari/537.36" version="28.0.6">
  <diagram name="Page-1" id="Lo9mkHS9Evz4TcgTpAGk">
    <mxGraphModel dx="849" dy="2135" grid="1" gridSize="10" guides="1" tooltips="1" connect="1" arrows="1" fold="1" page="1" pageScale="1" pageWidth="850" pageHeight="1100" math="0" shadow="0">
      <root>
        <mxCell id="0" />
        <mxCell id="1" parent="0" />
        <mxCell id="Y9KtUHzJCofKYoZRdUBW-12" style="edgeStyle=orthogonalEdgeStyle;rounded=0;orthogonalLoop=1;jettySize=auto;html=1;exitX=0.25;exitY=0;exitDx=0;exitDy=0;" edge="1" parent="1" source="Y9KtUHzJCofKYoZRdUBW-1" target="Y9KtUHzJCofKYoZRdUBW-5">
          <mxGeometry relative="1" as="geometry" />
        </mxCell>
        <mxCell id="Y9KtUHzJCofKYoZRdUBW-13" style="edgeStyle=orthogonalEdgeStyle;rounded=0;orthogonalLoop=1;jettySize=auto;html=1;entryX=0.5;entryY=1;entryDx=0;entryDy=0;" edge="1" parent="1" source="Y9KtUHzJCofKYoZRdUBW-1" target="Y9KtUHzJCofKYoZRdUBW-6">
          <mxGeometry relative="1" as="geometry" />
        </mxCell>
        <mxCell id="Y9KtUHzJCofKYoZRdUBW-20" style="edgeStyle=orthogonalEdgeStyle;rounded=0;orthogonalLoop=1;jettySize=auto;html=1;exitX=0.75;exitY=0;exitDx=0;exitDy=0;entryX=0;entryY=0.5;entryDx=0;entryDy=0;" edge="1" parent="1" source="Y9KtUHzJCofKYoZRdUBW-1" target="Y9KtUHzJCofKYoZRdUBW-8">
          <mxGeometry relative="1" as="geometry" />
        </mxCell>
        <mxCell id="Y9KtUHzJCofKYoZRdUBW-39" value="" style="edgeStyle=orthogonalEdgeStyle;rounded=0;orthogonalLoop=1;jettySize=auto;html=1;" edge="1" parent="1" source="Y9KtUHzJCofKYoZRdUBW-1" target="Y9KtUHzJCofKYoZRdUBW-38">
          <mxGeometry relative="1" as="geometry" />
        </mxCell>
        <mxCell id="Y9KtUHzJCofKYoZRdUBW-69" style="edgeStyle=entityRelationEdgeStyle;rounded=0;orthogonalLoop=1;jettySize=auto;html=1;exitX=1;exitY=1;exitDx=0;exitDy=0;" edge="1" parent="1" source="Y9KtUHzJCofKYoZRdUBW-1" target="Y9KtUHzJCofKYoZRdUBW-67">
          <mxGeometry relative="1" as="geometry" />
        </mxCell>
        <mxCell id="Y9KtUHzJCofKYoZRdUBW-1" value="Musician" style="rounded=0;whiteSpace=wrap;html=1;" vertex="1" parent="1">
          <mxGeometry x="40" y="100" width="120" height="50" as="geometry" />
        </mxCell>
        <mxCell id="Y9KtUHzJCofKYoZRdUBW-36" style="edgeStyle=orthogonalEdgeStyle;rounded=0;orthogonalLoop=1;jettySize=auto;html=1;entryX=0.5;entryY=1;entryDx=0;entryDy=0;" edge="1" parent="1" source="Y9KtUHzJCofKYoZRdUBW-2" target="Y9KtUHzJCofKYoZRdUBW-34">
          <mxGeometry relative="1" as="geometry" />
        </mxCell>
        <mxCell id="Y9KtUHzJCofKYoZRdUBW-59" value="" style="edgeStyle=orthogonalEdgeStyle;rounded=0;orthogonalLoop=1;jettySize=auto;html=1;shape=link;" edge="1" parent="1" source="Y9KtUHzJCofKYoZRdUBW-2" target="Y9KtUHzJCofKYoZRdUBW-58">
          <mxGeometry relative="1" as="geometry" />
        </mxCell>
        <mxCell id="Y9KtUHzJCofKYoZRdUBW-2" value="Song" style="rounded=0;whiteSpace=wrap;html=1;" vertex="1" parent="1">
          <mxGeometry x="580" y="110" width="120" height="40" as="geometry" />
        </mxCell>
        <mxCell id="Y9KtUHzJCofKYoZRdUBW-24" style="edgeStyle=orthogonalEdgeStyle;rounded=0;orthogonalLoop=1;jettySize=auto;html=1;entryX=0.5;entryY=0;entryDx=0;entryDy=0;" edge="1" parent="1" source="Y9KtUHzJCofKYoZRdUBW-3" target="Y9KtUHzJCofKYoZRdUBW-22">
          <mxGeometry relative="1" as="geometry" />
        </mxCell>
        <mxCell id="Y9KtUHzJCofKYoZRdUBW-25" style="edgeStyle=orthogonalEdgeStyle;rounded=0;orthogonalLoop=1;jettySize=auto;html=1;" edge="1" parent="1" source="Y9KtUHzJCofKYoZRdUBW-3" target="Y9KtUHzJCofKYoZRdUBW-23">
          <mxGeometry relative="1" as="geometry" />
        </mxCell>
        <mxCell id="Y9KtUHzJCofKYoZRdUBW-41" value="" style="edgeStyle=orthogonalEdgeStyle;rounded=0;orthogonalLoop=1;jettySize=auto;html=1;" edge="1" parent="1" source="Y9KtUHzJCofKYoZRdUBW-3" target="Y9KtUHzJCofKYoZRdUBW-38">
          <mxGeometry relative="1" as="geometry" />
        </mxCell>
        <mxCell id="Y9KtUHzJCofKYoZRdUBW-3" value="Instrument" style="rounded=0;whiteSpace=wrap;html=1;" vertex="1" parent="1">
          <mxGeometry x="40" y="400" width="120" height="60" as="geometry" />
        </mxCell>
        <mxCell id="Y9KtUHzJCofKYoZRdUBW-30" style="edgeStyle=orthogonalEdgeStyle;rounded=0;orthogonalLoop=1;jettySize=auto;html=1;entryX=1;entryY=0;entryDx=0;entryDy=0;" edge="1" parent="1" source="Y9KtUHzJCofKYoZRdUBW-4" target="Y9KtUHzJCofKYoZRdUBW-29">
          <mxGeometry relative="1" as="geometry" />
        </mxCell>
        <mxCell id="Y9KtUHzJCofKYoZRdUBW-31" style="edgeStyle=orthogonalEdgeStyle;rounded=0;orthogonalLoop=1;jettySize=auto;html=1;" edge="1" parent="1" source="Y9KtUHzJCofKYoZRdUBW-4" target="Y9KtUHzJCofKYoZRdUBW-27">
          <mxGeometry relative="1" as="geometry" />
        </mxCell>
        <mxCell id="Y9KtUHzJCofKYoZRdUBW-32" style="edgeStyle=orthogonalEdgeStyle;rounded=0;orthogonalLoop=1;jettySize=auto;html=1;" edge="1" parent="1" source="Y9KtUHzJCofKYoZRdUBW-4" target="Y9KtUHzJCofKYoZRdUBW-28">
          <mxGeometry relative="1" as="geometry" />
        </mxCell>
        <mxCell id="Y9KtUHzJCofKYoZRdUBW-66" style="edgeStyle=orthogonalEdgeStyle;rounded=0;orthogonalLoop=1;jettySize=auto;html=1;shape=link;" edge="1" parent="1" source="Y9KtUHzJCofKYoZRdUBW-4" target="Y9KtUHzJCofKYoZRdUBW-48">
          <mxGeometry relative="1" as="geometry" />
        </mxCell>
        <mxCell id="Y9KtUHzJCofKYoZRdUBW-68" value="" style="edgeStyle=entityRelationEdgeStyle;rounded=0;orthogonalLoop=1;jettySize=auto;html=1;exitX=0;exitY=0;exitDx=0;exitDy=0;shape=link;" edge="1" parent="1" source="Y9KtUHzJCofKYoZRdUBW-4" target="Y9KtUHzJCofKYoZRdUBW-67">
          <mxGeometry relative="1" as="geometry" />
        </mxCell>
        <mxCell id="Y9KtUHzJCofKYoZRdUBW-4" value="Album" style="rounded=0;whiteSpace=wrap;html=1;" vertex="1" parent="1">
          <mxGeometry x="580" y="420" width="120" height="60" as="geometry" />
        </mxCell>
        <mxCell id="Y9KtUHzJCofKYoZRdUBW-5" value="Name" style="ellipse;whiteSpace=wrap;html=1;" vertex="1" parent="1">
          <mxGeometry y="10" width="60" height="40" as="geometry" />
        </mxCell>
        <mxCell id="Y9KtUHzJCofKYoZRdUBW-6" value="&lt;u&gt;ID&lt;/u&gt;" style="ellipse;whiteSpace=wrap;html=1;" vertex="1" parent="1">
          <mxGeometry x="70" y="10" width="60" height="40" as="geometry" />
        </mxCell>
        <mxCell id="Y9KtUHzJCofKYoZRdUBW-7" value="Phone" style="ellipse;whiteSpace=wrap;html=1;" vertex="1" parent="1">
          <mxGeometry x="100" y="-40" width="60" height="40" as="geometry" />
        </mxCell>
        <mxCell id="Y9KtUHzJCofKYoZRdUBW-15" value="" style="edgeStyle=orthogonalEdgeStyle;rounded=0;orthogonalLoop=1;jettySize=auto;html=1;" edge="1" parent="1" source="Y9KtUHzJCofKYoZRdUBW-8" target="Y9KtUHzJCofKYoZRdUBW-14">
          <mxGeometry relative="1" as="geometry" />
        </mxCell>
        <mxCell id="Y9KtUHzJCofKYoZRdUBW-18" value="" style="edgeStyle=orthogonalEdgeStyle;rounded=0;orthogonalLoop=1;jettySize=auto;html=1;" edge="1" parent="1" source="Y9KtUHzJCofKYoZRdUBW-8" target="Y9KtUHzJCofKYoZRdUBW-17">
          <mxGeometry relative="1" as="geometry">
            <Array as="points">
              <mxPoint x="290" y="70" />
            </Array>
          </mxGeometry>
        </mxCell>
        <mxCell id="Y9KtUHzJCofKYoZRdUBW-8" value="Address" style="ellipse;whiteSpace=wrap;html=1;" vertex="1" parent="1">
          <mxGeometry x="160" y="50" width="60" height="40" as="geometry" />
        </mxCell>
        <mxCell id="Y9KtUHzJCofKYoZRdUBW-14" value="Street" style="ellipse;whiteSpace=wrap;html=1;" vertex="1" parent="1">
          <mxGeometry x="160" y="-20" width="60" height="40" as="geometry" />
        </mxCell>
        <mxCell id="Y9KtUHzJCofKYoZRdUBW-17" value="City" style="ellipse;whiteSpace=wrap;html=1;" vertex="1" parent="1">
          <mxGeometry x="240" y="30" width="60" height="50" as="geometry" />
        </mxCell>
        <mxCell id="Y9KtUHzJCofKYoZRdUBW-21" style="edgeStyle=orthogonalEdgeStyle;rounded=0;orthogonalLoop=1;jettySize=auto;html=1;entryX=0.733;entryY=1.025;entryDx=0;entryDy=0;entryPerimeter=0;" edge="1" parent="1" source="Y9KtUHzJCofKYoZRdUBW-1" target="Y9KtUHzJCofKYoZRdUBW-7">
          <mxGeometry relative="1" as="geometry">
            <Array as="points">
              <mxPoint x="120" y="50" />
              <mxPoint x="144" y="50" />
            </Array>
          </mxGeometry>
        </mxCell>
        <mxCell id="Y9KtUHzJCofKYoZRdUBW-22" value="&lt;u&gt;Name&lt;/u&gt;" style="ellipse;whiteSpace=wrap;html=1;" vertex="1" parent="1">
          <mxGeometry y="530" width="70" height="40" as="geometry" />
        </mxCell>
        <mxCell id="Y9KtUHzJCofKYoZRdUBW-23" value="Musical Key" style="ellipse;whiteSpace=wrap;html=1;" vertex="1" parent="1">
          <mxGeometry x="100" y="540" width="70" height="40" as="geometry" />
        </mxCell>
        <mxCell id="Y9KtUHzJCofKYoZRdUBW-27" value="&lt;u&gt;Title&lt;/u&gt;" style="ellipse;whiteSpace=wrap;html=1;" vertex="1" parent="1">
          <mxGeometry x="590" y="575" width="60" height="30" as="geometry" />
        </mxCell>
        <mxCell id="Y9KtUHzJCofKYoZRdUBW-28" value="CP Date" style="ellipse;whiteSpace=wrap;html=1;" vertex="1" parent="1">
          <mxGeometry x="520" y="540" width="60" height="30" as="geometry" />
        </mxCell>
        <mxCell id="Y9KtUHzJCofKYoZRdUBW-29" value="ID" style="ellipse;whiteSpace=wrap;html=1;" vertex="1" parent="1">
          <mxGeometry x="660" y="545" width="60" height="30" as="geometry" />
        </mxCell>
        <mxCell id="Y9KtUHzJCofKYoZRdUBW-34" value="&lt;u&gt;Title&lt;/u&gt;" style="ellipse;whiteSpace=wrap;html=1;" vertex="1" parent="1">
          <mxGeometry x="570" y="35" width="70" height="40" as="geometry" />
        </mxCell>
        <mxCell id="Y9KtUHzJCofKYoZRdUBW-35" value="Author" style="ellipse;whiteSpace=wrap;html=1;" vertex="1" parent="1">
          <mxGeometry x="655" y="40" width="70" height="40" as="geometry" />
        </mxCell>
        <mxCell id="Y9KtUHzJCofKYoZRdUBW-37" style="edgeStyle=orthogonalEdgeStyle;rounded=0;orthogonalLoop=1;jettySize=auto;html=1;entryX=0.614;entryY=1.05;entryDx=0;entryDy=0;entryPerimeter=0;" edge="1" parent="1" source="Y9KtUHzJCofKYoZRdUBW-2" target="Y9KtUHzJCofKYoZRdUBW-35">
          <mxGeometry relative="1" as="geometry" />
        </mxCell>
        <mxCell id="Y9KtUHzJCofKYoZRdUBW-38" value="Play" style="rhombus;whiteSpace=wrap;html=1;rounded=0;" vertex="1" parent="1">
          <mxGeometry x="60" y="215" width="80" height="80" as="geometry" />
        </mxCell>
        <mxCell id="Y9KtUHzJCofKYoZRdUBW-43" value="1" style="text;html=1;align=center;verticalAlign=middle;resizable=0;points=[];autosize=1;strokeColor=none;fillColor=none;" vertex="1" parent="1">
          <mxGeometry x="70" y="160" width="30" height="30" as="geometry" />
        </mxCell>
        <mxCell id="Y9KtUHzJCofKYoZRdUBW-44" value="M" style="text;html=1;align=center;verticalAlign=middle;resizable=0;points=[];autosize=1;strokeColor=none;fillColor=none;" vertex="1" parent="1">
          <mxGeometry x="70" y="360" width="30" height="30" as="geometry" />
        </mxCell>
        <mxCell id="Y9KtUHzJCofKYoZRdUBW-45" value="1" style="text;html=1;align=center;verticalAlign=middle;resizable=0;points=[];autosize=1;strokeColor=none;fillColor=none;" vertex="1" parent="1">
          <mxGeometry x="110" y="360" width="30" height="30" as="geometry" />
        </mxCell>
        <mxCell id="Y9KtUHzJCofKYoZRdUBW-46" value="M" style="text;html=1;align=center;verticalAlign=middle;resizable=0;points=[];autosize=1;strokeColor=none;fillColor=none;" vertex="1" parent="1">
          <mxGeometry x="110" y="160" width="30" height="30" as="geometry" />
        </mxCell>
        <mxCell id="Y9KtUHzJCofKYoZRdUBW-48" value="Has" style="rhombus;whiteSpace=wrap;html=1;rounded=0;" vertex="1" parent="1">
          <mxGeometry x="600" y="250" width="80" height="80" as="geometry" />
        </mxCell>
        <mxCell id="Y9KtUHzJCofKYoZRdUBW-54" value="" style="endArrow=none;html=1;rounded=0;exitX=0.5;exitY=0;exitDx=0;exitDy=0;entryX=0.5;entryY=1;entryDx=0;entryDy=0;" edge="1" parent="1" source="Y9KtUHzJCofKYoZRdUBW-48" target="Y9KtUHzJCofKYoZRdUBW-2">
          <mxGeometry width="50" height="50" relative="1" as="geometry">
            <mxPoint x="630" y="270" as="sourcePoint" />
            <mxPoint x="630" y="200" as="targetPoint" />
          </mxGeometry>
        </mxCell>
        <mxCell id="Y9KtUHzJCofKYoZRdUBW-55" value="1" style="text;html=1;align=center;verticalAlign=middle;resizable=0;points=[];autosize=1;strokeColor=none;fillColor=none;" vertex="1" parent="1">
          <mxGeometry x="605" y="390" width="30" height="30" as="geometry" />
        </mxCell>
        <mxCell id="Y9KtUHzJCofKYoZRdUBW-56" value="M" style="text;html=1;align=center;verticalAlign=middle;resizable=0;points=[];autosize=1;strokeColor=none;fillColor=none;" vertex="1" parent="1">
          <mxGeometry x="615" y="148" width="30" height="30" as="geometry" />
        </mxCell>
        <mxCell id="Y9KtUHzJCofKYoZRdUBW-58" value="Perform" style="rhombus;whiteSpace=wrap;html=1;rounded=0;" vertex="1" parent="1">
          <mxGeometry x="370" y="90" width="80" height="80" as="geometry" />
        </mxCell>
        <mxCell id="Y9KtUHzJCofKYoZRdUBW-61" style="edgeStyle=orthogonalEdgeStyle;rounded=0;orthogonalLoop=1;jettySize=auto;html=1;shape=wire;dashed=1;" edge="1" parent="1" source="Y9KtUHzJCofKYoZRdUBW-58">
          <mxGeometry relative="1" as="geometry">
            <mxPoint x="160" y="130" as="targetPoint" />
          </mxGeometry>
        </mxCell>
        <mxCell id="Y9KtUHzJCofKYoZRdUBW-62" value="M" style="text;html=1;align=center;verticalAlign=middle;resizable=0;points=[];autosize=1;strokeColor=none;fillColor=none;" vertex="1" parent="1">
          <mxGeometry x="555" y="108" width="30" height="30" as="geometry" />
        </mxCell>
        <mxCell id="Y9KtUHzJCofKYoZRdUBW-63" value="M" style="text;html=1;align=center;verticalAlign=middle;resizable=0;points=[];autosize=1;strokeColor=none;fillColor=none;" vertex="1" parent="1">
          <mxGeometry x="160" y="100" width="30" height="30" as="geometry" />
        </mxCell>
        <mxCell id="Y9KtUHzJCofKYoZRdUBW-67" value="Produce" style="rhombus;whiteSpace=wrap;html=1;rounded=0;" vertex="1" parent="1">
          <mxGeometry x="320" y="295" width="80" height="80" as="geometry" />
        </mxCell>
        <mxCell id="Y9KtUHzJCofKYoZRdUBW-71" value="1" style="text;html=1;align=center;verticalAlign=middle;resizable=0;points=[];autosize=1;strokeColor=none;fillColor=none;" vertex="1" parent="1">
          <mxGeometry x="545" y="368" width="30" height="30" as="geometry" />
        </mxCell>
        <mxCell id="Y9KtUHzJCofKYoZRdUBW-72" value="M" style="text;html=1;align=center;verticalAlign=middle;resizable=0;points=[];autosize=1;strokeColor=none;fillColor=none;" vertex="1" parent="1">
          <mxGeometry x="155" y="158" width="30" height="30" as="geometry" />
        </mxCell>
      </root>
    </mxGraphModel>
  </diagram>
</mxfile>
